<svg xmlns="http://www.w3.org/2000/svg" version="1.1" xmlns:xlink="http://www.w3.org/1999/xlink" xmlns:svgjs="http://svgjs.dev/svgjs" width="1440" height="560" preserveAspectRatio="none" viewBox="0 0 1440 560"><g mask="url(&quot;#SvgjsMask1133&quot;)" fill="none"><rect width="1440" height="560" x="0" y="0" fill="rgba(9, 4, 19, 1)"></rect><path d="M124.3 -16.69L234.29 46.81L234.29 173.81L124.3 237.31L14.31 173.81L14.31 46.81zM124.3 364.31L234.29 427.81L234.29 554.81L124.3 618.31L14.31 554.81L14.31 427.81zM344.28 -16.69L454.27 46.81L454.27 173.81L344.28 237.31L234.29 173.81L234.29 46.81zM344.28 364.31L454.27 427.81L454.27 554.81L344.28 618.31L234.29 554.81L234.29 427.81zM784.23 -16.69L894.22 46.81L894.22 173.81L784.23 237.31L674.24 173.81L674.24 46.81zM894.22 173.81L1004.21 237.31L1004.21 364.31L894.22 427.81L784.23 364.31L784.23 237.31zM784.23 364.31L894.22 427.81L894.22 554.81L784.23 618.31L674.24 554.81L674.24 427.81zM1114.2 554.81L1224.18 618.31L1224.18 745.31L1114.2 808.81L1004.21 745.31L1004.21 618.31zM1554.15 554.81L1664.14 618.31L1664.14 745.31L1554.15 808.81L1444.16 745.31L1444.16 618.31z" stroke="rgba(48, 23, 109, 0.41)" stroke-width="2"></path><path d="M57.6 325.9L87.04 342.9L87.04 376.9L57.6 393.9L28.15 376.9L28.15 342.9zM57.6 529.9L87.04 546.9L87.04 580.9L57.6 597.9L28.15 580.9L28.15 546.9zM175.38 529.9L204.82 546.9L204.82 580.9L175.38 597.9L145.93 580.9L145.93 546.9zM204.82 70.9L234.27 87.9L234.27 121.9L204.82 138.9L175.38 121.9L175.38 87.9zM263.72 478.9L293.16 495.9L293.16 529.9L263.72 546.9L234.27 529.9L234.27 495.9zM322.61 -31.1L352.05 -14.1L352.05 19.9L322.61 36.9L293.16 19.9L293.16 -14.1zM322.61 70.9L352.05 87.9L352.05 121.9L322.61 138.9L293.16 121.9L293.16 87.9zM381.5 -31.1L410.94 -14.1L410.94 19.9L381.5 36.9L352.05 19.9L352.05 -14.1zM381.5 274.9L410.94 291.9L410.94 325.9L381.5 342.9L352.05 325.9L352.05 291.9zM410.94 529.9L440.39 546.9L440.39 580.9L410.94 597.9L381.5 580.9L381.5 546.9zM440.39 172.9L469.84 189.9L469.84 223.9L440.39 240.9L410.94 223.9L410.94 189.9zM528.73 325.9L558.17 342.9L558.17 376.9L528.73 393.9L499.28 376.9L499.28 342.9zM499.28 478.9L528.73 495.9L528.73 529.9L499.28 546.9L469.84 529.9L469.84 495.9zM617.06 376.9L646.51 393.9L646.51 427.9L617.06 444.9L587.62 427.9L587.62 393.9zM705.4 121.9L734.85 138.9L734.85 172.9L705.4 189.9L675.96 172.9L675.96 138.9zM675.96 376.9L705.4 393.9L705.4 427.9L675.96 444.9L646.51 427.9L646.51 393.9zM705.4 427.9L734.85 444.9L734.85 478.9L705.4 495.9L675.96 478.9L675.96 444.9zM764.29 19.9L793.74 36.9L793.74 70.9L764.29 87.9L734.85 70.9L734.85 36.9zM734.85 172.9L764.29 189.9L764.29 223.9L734.85 240.9L705.4 223.9L705.4 189.9zM793.74 274.9L823.18 291.9L823.18 325.9L793.74 342.9L764.29 325.9L764.29 291.9zM882.08 223.9L911.52 240.9L911.52 274.9L882.08 291.9L852.63 274.9L852.63 240.9zM852.63 376.9L882.08 393.9L882.08 427.9L852.63 444.9L823.18 427.9L823.18 393.9zM940.97 223.9L970.41 240.9L970.41 274.9L940.97 291.9L911.52 274.9L911.52 240.9zM940.97 427.9L970.41 444.9L970.41 478.9L940.97 495.9L911.52 478.9L911.52 444.9zM970.41 -31.1L999.86 -14.1L999.86 19.9L970.41 36.9L940.97 19.9L940.97 -14.1zM999.86 325.9L1029.3 342.9L1029.3 376.9L999.86 393.9L970.41 376.9L970.41 342.9zM970.41 478.9L999.86 495.9L999.86 529.9L970.41 546.9L940.97 529.9L940.97 495.9zM1029.3 70.9L1058.75 87.9L1058.75 121.9L1029.3 138.9L999.86 121.9L999.86 87.9zM1088.2 -31.1L1117.64 -14.1L1117.64 19.9L1088.2 36.9L1058.75 19.9L1058.75 -14.1zM1117.64 223.9L1147.09 240.9L1147.09 274.9L1117.64 291.9L1088.2 274.9L1088.2 240.9zM1147.09 -31.1L1176.53 -14.1L1176.53 19.9L1147.09 36.9L1117.64 19.9L1117.64 -14.1zM1205.98 274.9L1235.42 291.9L1235.42 325.9L1205.98 342.9L1176.53 325.9L1176.53 291.9zM1205.98 376.9L1235.42 393.9L1235.42 427.9L1205.98 444.9L1176.53 427.9L1176.53 393.9zM1235.42 427.9L1264.87 444.9L1264.87 478.9L1235.42 495.9L1205.98 478.9L1205.98 444.9zM1294.32 121.9L1323.76 138.9L1323.76 172.9L1294.32 189.9L1264.87 172.9L1264.87 138.9zM1323.76 172.9L1353.21 189.9L1353.21 223.9L1323.76 240.9L1294.32 223.9L1294.32 189.9zM1323.76 274.9L1353.21 291.9L1353.21 325.9L1323.76 342.9L1294.32 325.9L1294.32 291.9zM1382.65 274.9L1412.1 291.9L1412.1 325.9L1382.65 342.9L1353.21 325.9L1353.21 291.9zM1412.1 325.9L1441.54 342.9L1441.54 376.9L1412.1 393.9L1382.65 376.9L1382.65 342.9zM1470.99 121.9L1500.43 138.9L1500.43 172.9L1470.99 189.9L1441.54 172.9L1441.54 138.9zM1441.54 172.9L1470.99 189.9L1470.99 223.9L1441.54 240.9L1412.1 223.9L1412.1 189.9zM1470.99 325.9L1500.43 342.9L1500.43 376.9L1470.99 393.9L1441.54 376.9L1441.54 342.9zM1441.54 376.9L1470.99 393.9L1470.99 427.9L1441.54 444.9L1412.1 427.9L1412.1 393.9zM1470.99 427.9L1500.43 444.9L1500.43 478.9L1470.99 495.9L1441.54 478.9L1441.54 444.9z" stroke="rgba(48, 23, 109, 0.52)" stroke-width="2"></path><path d="M30.78 318.63L83.61 349.13L83.61 410.13L30.78 440.63L-22.05 410.13L-22.05 349.13zM83.61 410.13L136.44 440.63L136.44 501.63L83.61 532.13L30.78 501.63L30.78 440.63zM189.27 44.13L242.1 74.63L242.1 135.63L189.27 166.13L136.44 135.63L136.44 74.63zM189.27 227.13L242.1 257.63L242.1 318.63L189.27 349.13L136.44 318.63L136.44 257.63zM136.44 501.63L189.27 532.13L189.27 593.13L136.44 623.63L83.61 593.13L83.61 532.13zM294.93 44.13L347.75 74.63L347.75 135.63L294.93 166.13L242.1 135.63L242.1 74.63zM242.1 135.63L294.93 166.13L294.93 227.13L242.1 257.63L189.27 227.13L189.27 166.13zM242.1 318.63L294.93 349.13L294.93 410.13L242.1 440.63L189.27 410.13L189.27 349.13zM347.75 -47.37L400.58 -16.87L400.58 44.13L347.75 74.63L294.93 44.13L294.93 -16.87zM347.75 318.63L400.58 349.13L400.58 410.13L347.75 440.63L294.93 410.13L294.93 349.13zM400.58 410.13L453.41 440.63L453.41 501.63L400.58 532.13L347.75 501.63L347.75 440.63zM347.75 501.63L400.58 532.13L400.58 593.13L347.75 623.63L294.93 593.13L294.93 532.13zM453.41 135.63L506.24 166.13L506.24 227.13L453.41 257.63L400.58 227.13L400.58 166.13zM506.24 227.13L559.07 257.63L559.07 318.63L506.24 349.13L453.41 318.63L453.41 257.63zM611.9 44.13L664.73 74.63L664.73 135.63L611.9 166.13L559.07 135.63L559.07 74.63zM559.07 318.63L611.9 349.13L611.9 410.13L559.07 440.63L506.24 410.13L506.24 349.13zM611.9 410.13L664.73 440.63L664.73 501.63L611.9 532.13L559.07 501.63L559.07 440.63zM664.73 -47.37L717.56 -16.87L717.56 44.13L664.73 74.63L611.9 44.13L611.9 -16.87zM717.56 44.13L770.39 74.63L770.39 135.63L717.56 166.13L664.73 135.63L664.73 74.63zM664.73 318.63L717.56 349.13L717.56 410.13L664.73 440.63L611.9 410.13L611.9 349.13zM823.22 44.13L876.04 74.63L876.04 135.63L823.22 166.13L770.39 135.63L770.39 74.63zM823.22 227.13L876.04 257.63L876.04 318.63L823.22 349.13L770.39 318.63L770.39 257.63zM876.04 -47.37L928.87 -16.87L928.87 44.13L876.04 74.63L823.22 44.13L823.22 -16.87zM928.87 44.13L981.7 74.63L981.7 135.63L928.87 166.13L876.04 135.63L876.04 74.63zM876.04 135.63L928.87 166.13L928.87 227.13L876.04 257.63L823.22 227.13L823.22 166.13zM876.04 318.63L928.87 349.13L928.87 410.13L876.04 440.63L823.22 410.13L823.22 349.13zM928.87 410.13L981.7 440.63L981.7 501.63L928.87 532.13L876.04 501.63L876.04 440.63zM876.04 501.63L928.87 532.13L928.87 593.13L876.04 623.63L823.22 593.13L823.22 532.13zM981.7 -47.37L1034.53 -16.87L1034.53 44.13L981.7 74.63L928.87 44.13L928.87 -16.87zM1087.36 135.63L1140.19 166.13L1140.19 227.13L1087.36 257.63L1034.53 227.13L1034.53 166.13zM1087.36 318.63L1140.19 349.13L1140.19 410.13L1087.36 440.63L1034.53 410.13L1034.53 349.13zM1193.02 -47.37L1245.85 -16.87L1245.85 44.13L1193.02 74.63L1140.19 44.13L1140.19 -16.87zM1245.85 44.13L1298.68 74.63L1298.68 135.63L1245.85 166.13L1193.02 135.63L1193.02 74.63zM1193.02 135.63L1245.85 166.13L1245.85 227.13L1193.02 257.63L1140.19 227.13L1140.19 166.13zM1245.85 227.13L1298.68 257.63L1298.68 318.63L1245.85 349.13L1193.02 318.63L1193.02 257.63zM1245.85 410.13L1298.68 440.63L1298.68 501.63L1245.85 532.13L1193.02 501.63L1193.02 440.63zM1298.68 318.63L1351.51 349.13L1351.51 410.13L1298.68 440.63L1245.85 410.13L1245.85 349.13zM1351.51 410.13L1404.34 440.63L1404.34 501.63L1351.51 532.13L1298.68 501.63L1298.68 440.63zM1404.34 -47.37L1457.16 -16.87L1457.16 44.13L1404.34 74.63L1351.51 44.13L1351.51 -16.87zM1404.34 135.63L1457.16 166.13L1457.16 227.13L1404.34 257.63L1351.51 227.13L1351.51 166.13zM1457.16 227.13L1509.99 257.63L1509.99 318.63L1457.16 349.13L1404.34 318.63L1404.34 257.63zM1404.34 318.63L1457.16 349.13L1457.16 410.13L1404.34 440.63L1351.51 410.13L1351.51 349.13zM1457.16 410.13L1509.99 440.63L1509.99 501.63L1457.16 532.13L1404.34 501.63L1404.34 440.63zM1404.34 501.63L1457.16 532.13L1457.16 593.13L1404.34 623.63L1351.51 593.13L1351.51 532.13z" stroke="rgba(48, 23, 109, 0.59)" stroke-width="2"></path></g><defs><mask id="SvgjsMask1133"><rect width="1440" height="560" fill="#ffffff"></rect></mask></defs></svg>